<svg width="14" height="14" viewBox="0 0 14 14" fill="none" xmlns="http://www.w3.org/2000/svg">
<path d="M7.18132 0.5C3.57242 0.5 0.636841 3.41563 0.636841 7C0.636841 10.5844 3.57242 13.5 7.18132 13.5C10.7902 13.5 13.7258 10.5844 13.7258 7C13.7258 3.41563 10.7902 0.5 7.18132 0.5ZM11.5092 3.49687C12.2879 4.44219 12.7599 5.64531 12.7709 6.95625C12.5868 6.91719 10.7383 6.54531 8.8788 6.77812C8.83947 6.68281 8.80014 6.5875 8.75923 6.49219C8.64282 6.22188 8.51853 5.95156 8.38796 5.6875C10.4536 4.84844 11.3912 3.65625 11.5092 3.49687ZM7.18132 1.45625C8.60191 1.45625 9.8998 1.98594 10.8862 2.85469C10.7855 2.99688 9.94385 4.12031 7.9569 4.86094C7.04131 3.18906 6.0266 1.81719 5.87085 1.61094C6.30033 1.50781 6.73925 1.45625 7.18132 1.45625ZM4.80423 1.98438C4.95211 2.18438 5.95108 3.56094 6.87612 5.19531C4.26148 5.88438 1.95832 5.875 1.70818 5.87187C2.07159 4.14844 3.24047 2.71719 4.80423 1.98438ZM1.59177 7.00781C1.59177 6.95156 1.59334 6.89375 1.59491 6.8375C1.83876 6.84219 4.5478 6.87656 7.34021 6.04688C7.50068 6.35781 7.65328 6.67344 7.79329 6.98906C7.71935 7.00937 7.64541 7.03125 7.57305 7.05469C4.68938 7.98281 3.15552 10.5062 3.02809 10.7203C2.13609 9.73594 1.59177 8.43437 1.59177 7.00781ZM7.18132 12.5594C5.88816 12.5594 4.69725 12.1219 3.75019 11.3875C3.85087 11.1828 4.982 9.0125 8.13468 7.92031L8.17086 7.90781C8.95588 9.93281 9.27996 11.6312 9.36334 12.1187C8.67374 12.4115 7.93126 12.5614 7.18132 12.5594ZM10.3041 11.6109C10.2475 11.2734 9.95014 9.64844 9.21861 7.65312C10.9711 7.375 12.5097 7.83125 12.7001 7.89062C12.4515 9.43437 11.5595 10.7687 10.3041 11.6109Z" fill="#333333"/>
</svg>
