<svg width="16" height="11" viewBox="0 0 16 11" fill="none" xmlns="http://www.w3.org/2000/svg">
<path d="M14.6667 1.66659H10V0.333252H14.6667V1.66659ZM15.8173 8.33325C15.5227 9.19792 14.4647 10.3333 12.4167 10.3333C10.3673 10.3333 8.70733 9.18059 8.70733 6.54992C8.70733 3.94325 10.2573 2.60325 12.3513 2.60325C14.406 2.60325 15.6607 3.79125 15.9347 5.55392C15.9867 5.89125 16.0073 6.34592 15.998 6.98059H10.6467C10.7333 9.12125 12.9687 9.18859 13.7053 8.33325H15.8173ZM10.6933 5.66659H14.0033C13.9333 4.63525 13.246 4.18725 12.352 4.18725C11.3747 4.18725 10.834 4.69925 10.6933 5.66659ZM4.31067 10.3253H0V0.347252H4.63533C8.286 0.401252 8.35533 3.97659 6.44867 4.95125C8.756 5.79125 8.83333 10.3253 4.31067 10.3253ZM2 4.33325H4.38933C6.06133 4.33325 6.32667 2.33325 4.18133 2.33325H2V4.33325ZM4.26067 6.33325H2V8.34392H4.22733C6.264 8.34392 6.13933 6.33325 4.26067 6.33325Z" fill="#333333"/>
</svg>
