<svg width="272" height="82" viewBox="0 0 272 82" fill="none" xmlns="http://www.w3.org/2000/svg">
<rect y="22" width="32" height="32" rx="4" fill="white"/>
<path d="M23.762 33.2912C23.2054 33.5379 22.6074 33.7046 21.9787 33.7799C22.6274 33.3918 23.1127 32.7809 23.344 32.0612C22.7346 32.4232 22.0676 32.678 21.372 32.8146C20.9043 32.3151 20.2847 31.9841 19.6096 31.8729C18.9344 31.7616 18.2414 31.8764 17.6382 32.1994C17.0349 32.5224 16.5552 33.0355 16.2735 33.659C15.9917 34.2826 15.9237 34.9817 16.08 35.6479C14.8452 35.5859 13.6371 35.2649 12.5343 34.7058C11.4315 34.1467 10.4586 33.362 9.67869 32.4026C9.41203 32.8626 9.25869 33.3959 9.25869 33.9639C9.2584 34.4752 9.38432 34.9787 9.62528 35.4297C9.86624 35.8807 10.2148 36.2652 10.64 36.5492C10.1469 36.5335 9.66461 36.4003 9.23336 36.1606V36.2006C9.23331 36.9177 9.48138 37.6128 9.93548 38.1679C10.3896 38.723 11.0217 39.1038 11.7247 39.2459C11.2672 39.3697 10.7876 39.3879 10.322 39.2992C10.5204 39.9163 10.9067 40.4559 11.4269 40.8425C11.9472 41.2291 12.5753 41.4433 13.2234 41.4552C12.1233 42.3188 10.7646 42.7873 9.36603 42.7852C9.11828 42.7853 8.87075 42.7708 8.62469 42.7419C10.0443 43.6547 11.6969 44.1391 13.3847 44.1372C19.098 44.1372 22.2214 39.4052 22.2214 35.3012C22.2214 35.1679 22.218 35.0332 22.212 34.8999C22.8196 34.4605 23.344 33.9165 23.7607 33.2932L23.762 33.2912V33.2912Z" fill="#333333"/>
<g filter="url(#filter0_d_1_26)">
<rect x="48" y="22" width="32" height="32" rx="4" fill="white"/>
<path d="M63.9942 35.913C62.8473 35.913 61.9114 36.8489 61.9114 37.9958C61.9114 39.1427 62.8473 40.0786 63.9942 40.0786C65.1411 40.0786 66.077 39.1427 66.077 37.9958C66.077 36.8489 65.1411 35.913 63.9942 35.913ZM70.2411 37.9958C70.2411 37.1333 70.2489 36.2786 70.2005 35.4177C70.152 34.4177 69.9239 33.5302 69.1927 32.7989C68.4598 32.0661 67.5739 31.8395 66.5739 31.7911C65.7114 31.7427 64.8567 31.7505 63.9958 31.7505C63.1333 31.7505 62.2786 31.7427 61.4177 31.7911C60.4177 31.8395 59.5302 32.0677 58.7989 32.7989C58.0661 33.5317 57.8395 34.4177 57.7911 35.4177C57.7427 36.2802 57.7505 37.1348 57.7505 37.9958C57.7505 38.8567 57.7427 39.713 57.7911 40.5739C57.8395 41.5739 58.0677 42.4614 58.7989 43.1927C59.5317 43.9255 60.4177 44.152 61.4177 44.2005C62.2802 44.2489 63.1348 44.2411 63.9958 44.2411C64.8583 44.2411 65.713 44.2489 66.5739 44.2005C67.5739 44.152 68.4614 43.9239 69.1927 43.1927C69.9255 42.4598 70.152 41.5739 70.2005 40.5739C70.2505 39.713 70.2411 38.8583 70.2411 37.9958V37.9958ZM63.9942 41.2005C62.2208 41.2005 60.7895 39.7692 60.7895 37.9958C60.7895 36.2223 62.2208 34.7911 63.9942 34.7911C65.7677 34.7911 67.1989 36.2223 67.1989 37.9958C67.1989 39.7692 65.7677 41.2005 63.9942 41.2005ZM67.3302 35.4083C66.9161 35.4083 66.5817 35.0739 66.5817 34.6598C66.5817 34.2458 66.9161 33.9114 67.3302 33.9114C67.7442 33.9114 68.0786 34.2458 68.0786 34.6598C68.0787 34.7582 68.0594 34.8555 68.0219 34.9464C67.9843 35.0373 67.9292 35.1198 67.8597 35.1893C67.7901 35.2589 67.7076 35.314 67.6167 35.3516C67.5259 35.3891 67.4285 35.4084 67.3302 35.4083V35.4083Z" fill="#333333"/>
</g>
<rect x="96" y="22" width="32" height="32" rx="4" fill="white"/>
<g clip-path="url(#clip0_1_26)">
<path d="M108.134 44H105.232V34.653H108.134V44ZM106.681 33.378C105.753 33.378 105 32.609 105 31.681C105 31.2352 105.177 30.8076 105.492 30.4924C105.808 30.1771 106.235 30 106.681 30C107.127 30 107.554 30.1771 107.87 30.4924C108.185 30.8076 108.362 31.2352 108.362 31.681C108.362 32.609 107.609 33.378 106.681 33.378ZM118.997 44H116.101V39.45C116.101 38.3655 116.079 36.975 114.592 36.975C113.083 36.975 112.851 38.153 112.851 39.372V44H109.952V34.653H112.736V35.928H112.776C113.164 35.1935 114.11 34.4185 115.522 34.4185C118.46 34.4185 119 36.353 119 38.8655V44H118.997Z" fill="#333333"/>
</g>
<rect x="144" y="22" width="32" height="32" rx="4" fill="white"/>
<path d="M166.708 34.6266C166.628 34.3297 166.472 34.0591 166.255 33.8416C166.038 33.6242 165.767 33.4676 165.47 33.3875C164.378 33.0938 160 33.0938 160 33.0938C160 33.0938 155.622 33.0937 154.53 33.3859C154.233 33.4657 153.962 33.6223 153.745 33.8397C153.528 34.0572 153.372 34.3281 153.292 34.625C153 35.7188 153 38 153 38C153 38 153 40.2813 153.292 41.3734C153.453 41.9766 153.928 42.4516 154.53 42.6125C155.622 42.9063 160 42.9062 160 42.9062C160 42.9062 164.378 42.9063 165.47 42.6125C166.073 42.4516 166.547 41.9766 166.708 41.3734C167 40.2813 167 38 167 38C167 38 167 35.7188 166.708 34.6266ZM158.609 40.0938V35.9062L162.234 37.9844L158.609 40.0938Z" fill="#333333"/>
<rect x="192" y="22" width="32" height="32" rx="4" fill="white"/>
<path d="M208.155 29.5786C203.589 29.5786 199.887 33.2516 199.887 37.7828C199.887 39.3328 200.32 40.7824 201.073 42.0192L199.581 46.4207L204.159 44.9665C205.343 45.6163 206.705 45.987 208.155 45.987C212.721 45.987 216.423 42.3135 216.423 37.7828C216.423 33.2516 212.721 29.5786 208.155 29.5786ZM212.266 40.8985C212.072 41.3808 211.192 41.8208 210.804 41.8411C210.416 41.8617 210.405 42.1416 208.291 41.2233C206.177 40.3047 204.906 38.0712 204.805 37.9274C204.705 37.7841 203.987 36.7602 204.025 35.7299C204.064 34.6993 204.629 34.2131 204.83 34.0109C205.031 33.8084 205.262 33.7721 205.403 33.7698C205.569 33.7671 205.677 33.7648 205.8 33.7694C205.923 33.774 206.108 33.7436 206.268 34.1693C206.428 34.595 206.811 35.6412 206.86 35.7479C206.909 35.8546 206.939 35.9782 206.864 36.1152C206.788 36.2525 206.75 36.3383 206.64 36.4567C206.529 36.575 206.408 36.7214 206.309 36.8119C206.2 36.9121 206.085 37.0214 206.2 37.2355C206.316 37.4496 206.714 38.1512 207.32 38.7294C208.099 39.4726 208.771 39.7192 208.978 39.8315C209.185 39.9444 209.309 39.9319 209.437 39.7966C209.565 39.6613 209.988 39.2046 210.136 39.0008C210.285 38.7963 210.424 38.8364 210.615 38.9132C210.806 38.9903 211.824 39.5356 212.032 39.6482C212.239 39.7606 212.377 39.8185 212.427 39.9076C212.476 39.9971 212.461 40.4163 212.266 40.8985V40.8985Z" fill="#333333"/>
<rect x="240" y="22" width="32" height="32" rx="4" fill="white"/>
<g clip-path="url(#clip1_1_26)">
<path d="M262.667 34.6666H258V33.3333H262.667V34.6666ZM263.817 41.3333C263.523 42.1979 262.465 43.3333 260.417 43.3333C258.367 43.3333 256.707 42.1806 256.707 39.5499C256.707 36.9433 258.257 35.6033 260.351 35.6033C262.406 35.6033 263.661 36.7913 263.935 38.5539C263.987 38.8913 264.007 39.3459 263.998 39.9806H258.647C258.733 42.1213 260.969 42.1886 261.705 41.3333H263.817ZM258.693 38.6666H262.003C261.933 37.6353 261.246 37.1873 260.352 37.1873C259.375 37.1873 258.834 37.6993 258.693 38.6666ZM252.311 43.3253H248V33.3473H252.635C256.286 33.4013 256.355 36.9766 254.449 37.9513C256.756 38.7913 256.833 43.3253 252.311 43.3253V43.3253ZM250 37.3333H252.389C254.061 37.3333 254.327 35.3333 252.181 35.3333H250V37.3333ZM252.261 39.3333H250V41.3439H252.227C254.264 41.3439 254.139 39.3333 252.261 39.3333V39.3333Z" fill="#333333"/>
</g>
<defs>
<filter id="filter0_d_1_26" x="23" y="0" width="82" height="82" filterUnits="userSpaceOnUse" color-interpolation-filters="sRGB">
<feFlood flood-opacity="0" result="BackgroundImageFix"/>
<feColorMatrix in="SourceAlpha" type="matrix" values="0 0 0 0 0 0 0 0 0 0 0 0 0 0 0 0 0 0 127 0" result="hardAlpha"/>
<feOffset dy="3"/>
<feGaussianBlur stdDeviation="12.5"/>
<feComposite in2="hardAlpha" operator="out"/>
<feColorMatrix type="matrix" values="0 0 0 0 0.9125 0 0 0 0 0.9125 0 0 0 0 0.9125 0 0 0 1 0"/>
<feBlend mode="normal" in2="BackgroundImageFix" result="effect1_dropShadow_1_26"/>
<feBlend mode="normal" in="SourceGraphic" in2="effect1_dropShadow_1_26" result="shape"/>
</filter>
<clipPath id="clip0_1_26">
<rect width="16" height="16" fill="white" transform="translate(104 30)"/>
</clipPath>
<clipPath id="clip1_1_26">
<rect width="16" height="16" fill="white" transform="translate(248 30)"/>
</clipPath>
</defs>
</svg>
