<svg width="14" height="14" viewBox="0 0 14 14" fill="none" xmlns="http://www.w3.org/2000/svg">
<path d="M6.99421 4.91296C5.84734 4.91296 4.9114 5.8489 4.9114 6.99578C4.9114 8.14265 5.84734 9.07859 6.99421 9.07859C8.14109 9.07859 9.07703 8.14265 9.07703 6.99578C9.07703 5.8489 8.14109 4.91296 6.99421 4.91296ZM13.2411 6.99578C13.2411 6.13328 13.2489 5.27859 13.2005 4.41765C13.152 3.41765 12.9239 2.53015 12.1927 1.7989C11.4598 1.06609 10.5739 0.839527 9.5739 0.79109C8.7114 0.742652 7.85671 0.750465 6.99578 0.750465C6.13328 0.750465 5.27859 0.742652 4.41765 0.79109C3.41765 0.839527 2.53015 1.06765 1.7989 1.7989C1.06609 2.53171 0.839527 3.41765 0.79109 4.41765C0.742652 5.28015 0.750465 6.13484 0.750465 6.99578C0.750465 7.85671 0.742652 8.71296 0.79109 9.5739C0.839527 10.5739 1.06765 11.4614 1.7989 12.1927C2.53171 12.9255 3.41765 13.152 4.41765 13.2005C5.28015 13.2489 6.13484 13.2411 6.99578 13.2411C7.85828 13.2411 8.71296 13.2489 9.5739 13.2005C10.5739 13.152 11.4614 12.9239 12.1927 12.1927C12.9255 11.4598 13.152 10.5739 13.2005 9.5739C13.2505 8.71296 13.2411 7.85828 13.2411 6.99578ZM6.99421 10.2005C5.22078 10.2005 3.78953 8.76921 3.78953 6.99578C3.78953 5.22234 5.22078 3.79109 6.99421 3.79109C8.76765 3.79109 10.1989 5.22234 10.1989 6.99578C10.1989 8.76921 8.76765 10.2005 6.99421 10.2005ZM10.3302 4.40828C9.91609 4.40828 9.58171 4.0739 9.58171 3.65984C9.58171 3.24578 9.91609 2.9114 10.3302 2.9114C10.7442 2.9114 11.0786 3.24578 11.0786 3.65984C11.0787 3.75816 11.0594 3.85554 11.0219 3.9464C10.9843 4.03726 10.9292 4.11982 10.8597 4.18934C10.7901 4.25886 10.7076 4.31399 10.6167 4.35156C10.5259 4.38913 10.4285 4.4084 10.3302 4.40828Z" fill="#333333"/>
</svg>
