<svg width="14" height="14" viewBox="0 0 14 14" fill="none" xmlns="http://www.w3.org/2000/svg">
<path d="M7.17629 3.79548C5.39072 3.79548 3.94967 5.22673 3.94967 7.00017C3.94967 8.77361 5.39072 10.2049 7.17629 10.2049C8.96187 10.2049 10.4029 8.77361 10.4029 7.00017C10.4029 5.22673 8.96187 3.79548 7.17629 3.79548ZM7.17629 9.08298C6.02157 9.08298 5.07923 8.14704 5.07923 7.00017C5.07923 5.8533 6.02157 4.91736 7.17629 4.91736C8.33102 4.91736 9.27336 5.8533 9.27336 7.00017C9.27336 8.14704 8.33102 9.08298 7.17629 9.08298ZM10.5351 2.91736C10.1182 2.91736 9.7815 3.25173 9.7815 3.6658C9.7815 4.07986 10.1182 4.41423 10.5351 4.41423C10.952 4.41423 11.2886 4.08142 11.2886 3.6658C11.2887 3.56748 11.2693 3.4701 11.2315 3.37924C11.1937 3.28838 11.1382 3.20582 11.0682 3.1363C10.9982 3.06677 10.9151 3.01165 10.8236 2.97408C10.7321 2.93651 10.6341 2.91724 10.5351 2.91736ZM13.4659 7.00017C13.4659 6.13767 13.4738 5.28298 13.425 4.42205C13.3762 3.42205 13.1466 2.53455 12.4103 1.8033C11.6725 1.07048 10.7805 0.843922 9.77364 0.795484C8.90523 0.747047 8.0447 0.754859 7.17787 0.754859C6.30946 0.754859 5.44893 0.747047 4.5821 0.795484C3.57525 0.843922 2.68168 1.07205 1.94542 1.8033C1.2076 2.53611 0.979483 3.42205 0.930714 4.42205C0.881945 5.28455 0.889811 6.13923 0.889811 7.00017C0.889811 7.86111 0.881945 8.71736 0.930714 9.57829C0.979483 10.5783 1.20917 11.4658 1.94542 12.197C2.68325 12.9299 3.57525 13.1564 4.5821 13.2049C5.4505 13.2533 6.31104 13.2455 7.17787 13.2455C8.04627 13.2455 8.90681 13.2533 9.77364 13.2049C10.7805 13.1564 11.6741 12.9283 12.4103 12.197C13.1481 11.4642 13.3762 10.5783 13.425 9.57829C13.4754 8.71736 13.4659 7.86267 13.4659 7.00017ZM12.0815 10.6845C11.9667 10.9689 11.8282 11.1814 11.6064 11.4002C11.3846 11.6205 11.1722 11.758 10.8859 11.872C10.0584 12.1986 8.09346 12.1252 7.17629 12.1252C6.25912 12.1252 4.29263 12.1986 3.46513 11.8736C3.17881 11.7595 2.96485 11.622 2.74461 11.4017C2.52279 11.1814 2.38435 10.9705 2.2695 10.6861C1.94228 9.86267 2.01622 7.91111 2.01622 7.00017C2.01622 6.08923 1.94228 4.13611 2.2695 3.31423C2.38435 3.02986 2.52279 2.81736 2.74461 2.59861C2.96643 2.37986 3.17881 2.2408 3.46513 2.12673C4.29263 1.80173 6.25912 1.87517 7.17629 1.87517C8.09346 1.87517 10.06 1.80173 10.8875 2.12673C11.1738 2.2408 11.3877 2.3783 11.608 2.59861C11.8298 2.81892 11.9682 3.02986 12.0831 3.31423C12.4103 4.13611 12.3364 6.08923 12.3364 7.00017C12.3364 7.91111 12.4103 9.86267 12.0815 10.6845Z" fill="#333333"/>
</svg>
