<svg width="10" height="12" viewBox="0 0 10 12" fill="none" xmlns="http://www.w3.org/2000/svg">
<path d="M0.539716 4.3048C0.539716 3.78613 0.631003 3.29613 0.810892 2.8388C0.982762 2.3946 1.23811 1.98692 1.56334 1.63747C1.8879 1.29261 2.25932 0.994401 2.66684 0.751467C3.08496 0.500236 3.53762 0.310699 4.01064 0.188801C4.48937 0.0639484 4.98232 0.000983926 5.47727 0.00146761C6.2418 0.00146761 6.9533 0.162134 7.61312 0.482134C8.26433 0.796299 8.81861 1.27843 9.21803 1.87813C9.63017 2.48813 9.83489 3.17813 9.83489 3.94747C9.83489 4.4088 9.78925 4.86013 9.69595 5.30147C9.60433 5.74256 9.45871 6.17085 9.26233 6.5768C9.07515 6.96977 8.8304 7.33305 8.53606 7.6548C8.24024 7.97144 7.88198 8.22424 7.48358 8.39747C7.05104 8.58574 6.58314 8.6805 6.11091 8.67547C5.78268 8.67547 5.45512 8.5988 5.13159 8.4448C4.80806 8.29147 4.57581 8.0808 4.4362 7.8108C4.3872 7.99813 4.32008 8.2688 4.2308 8.6228C4.14488 8.97613 4.08716 9.20413 4.06165 9.30747C4.0348 9.41013 3.98513 9.58147 3.91264 9.8188C3.86348 9.99436 3.80041 10.1658 3.72402 10.3315L3.49312 10.7808C3.39326 10.9736 3.28163 11.1602 3.15885 11.3395C3.03736 11.5141 2.887 11.7228 2.70778 11.9628L2.60777 11.9981L2.54132 11.9261C2.4695 11.1708 2.43258 10.7188 2.43258 10.5695C2.43258 10.1275 2.48561 9.63147 2.59032 9.0808C2.69302 8.5308 2.85545 7.83947 3.0736 7.00813C3.29175 6.17747 3.4166 5.6888 3.45016 5.54413C3.29645 5.2328 3.21859 4.82613 3.21859 4.32613C3.21859 3.9268 3.34411 3.5528 3.59582 3.2008C3.8482 2.85013 4.16704 2.6748 4.55366 2.6748C4.84967 2.6748 5.07923 2.77213 5.24369 2.96747C5.40881 3.16213 5.48936 3.40747 5.48936 3.7068C5.48936 4.02413 5.3833 4.48347 5.16985 5.08413C4.9564 5.68547 4.85035 6.13413 4.85035 6.43213C4.85035 6.73413 4.95908 6.9868 5.17656 7.1848C5.39119 7.3829 5.67501 7.49026 5.96794 7.48413C6.23375 7.48413 6.48009 7.42413 6.70898 7.30347C6.93429 7.18634 7.12932 7.0191 7.27885 6.8148C7.60455 6.371 7.83673 5.86649 7.96149 5.33147C8.02593 5.05013 8.0756 4.7828 8.10648 4.53147C8.13937 4.2788 8.15346 4.04013 8.15346 3.81347C8.15346 2.98213 7.88766 2.33413 7.3594 1.87013C6.82846 1.40613 6.13709 1.17547 5.28664 1.17547C4.3194 1.17547 3.51057 1.48613 2.86284 2.10947C2.21443 2.7308 1.88821 3.5208 1.88821 4.4788C1.88821 4.69013 1.92043 4.89413 1.98151 5.09147C2.04125 5.28813 2.10636 5.4448 2.17684 5.5608C2.24665 5.6748 2.31243 5.78613 2.37217 5.8888C2.43258 5.99147 2.46413 6.0648 2.46413 6.1088C2.46413 6.24347 2.42855 6.4188 2.35673 6.63547C2.28223 6.85213 2.19429 6.96013 2.08824 6.96013C2.07817 6.96013 2.03656 6.9528 1.96406 6.93747C1.713 6.86302 1.48627 6.72386 1.30693 6.53413C1.11659 6.3375 0.966385 6.10614 0.86459 5.8528C0.763085 5.60037 0.684026 5.3396 0.628318 5.07347C0.56813 4.82165 0.538386 4.56361 0.539716 4.3048Z" fill="#333333"/>
</svg>
