<svg width="116" height="19" viewBox="0 0 116 19" fill="none" xmlns="http://www.w3.org/2000/svg">
<g clip-path="url(#clip0_1_76)">
<path d="M9.9886 0.612343C10.3323 -0.204115 11.5031 -0.204114 11.8468 0.612346L13.8756 5.43123C14.0206 5.77543 14.3483 6.01061 14.7244 6.0404L19.9904 6.45748C20.8826 6.52814 21.2444 7.62813 20.5646 8.2034L16.5525 11.5987C16.2659 11.8412 16.1407 12.2218 16.2283 12.5843L17.4541 17.661C17.6617 18.5211 16.7146 19.201 15.9507 18.7401L11.4423 16.0196C11.1202 15.8252 10.7152 15.8252 10.3932 16.0196L5.88471 18.7401C5.12084 19.201 4.17368 18.5211 4.38136 17.661L5.60715 12.5843C5.6947 12.2218 5.56955 11.8412 5.28298 11.5987L1.27079 8.2034C0.591007 7.62813 0.952792 6.52814 1.84502 6.45748L7.11108 6.0404C7.48722 6.01061 7.81488 5.77543 7.95979 5.43123L9.9886 0.612343Z" fill="#0099FF"/>
<path d="M33.9885 0.612343C34.3323 -0.204115 35.503 -0.204114 35.8468 0.612346L37.8756 5.43123C38.0206 5.77543 38.3482 6.01061 38.7243 6.0404L43.9903 6.45748C44.8826 6.52814 45.2443 7.62813 44.5646 8.2034L40.5524 11.5987C40.2659 11.8412 40.1407 12.2218 40.2282 12.5843L41.454 17.661C41.6617 18.5211 40.7146 19.201 39.9507 18.7401L35.4422 16.0196C35.1202 15.8252 34.7152 15.8252 34.3931 16.0196L29.8847 18.7401C29.1208 19.201 28.1736 18.5211 28.3813 17.661L29.6071 12.5843C29.6946 12.2218 29.5695 11.8412 29.2829 11.5987L25.2707 8.2034C24.5909 7.62813 24.9527 6.52814 25.845 6.45748L31.111 6.0404C31.4872 6.01061 31.8148 5.77543 31.9597 5.43123L33.9885 0.612343Z" fill="#57B9FB"/>
<path d="M57.9885 0.612343C58.3323 -0.204115 59.503 -0.204114 59.8468 0.612346L61.8755 5.43123C62.0205 5.77543 62.3482 6.01061 62.7243 6.0404L67.9903 6.45748C68.8825 6.52814 69.2443 7.62813 68.5645 8.2034L64.5524 11.5987C64.2659 11.8412 64.1406 12.2218 64.2282 12.5843L65.454 17.661C65.6616 18.5211 64.7145 19.201 63.9506 18.7401L59.4422 16.0196C59.1201 15.8252 58.7151 15.8252 58.3931 16.0196L53.8846 18.7401C53.1207 19.201 52.1736 18.5211 52.3813 17.661L53.6071 12.5843C53.6946 12.2218 53.5695 11.8412 53.2829 11.5987L49.2707 8.2034C48.5909 7.62813 48.9527 6.52814 49.8449 6.45748L55.111 6.0404C55.4871 6.01061 55.8148 5.77543 55.9597 5.43123L57.9885 0.612343Z" fill="#9FD5F9"/>
<path d="M81.9884 0.612343C82.3322 -0.204115 83.5029 -0.204114 83.8467 0.612346L85.8755 5.43123C86.0205 5.77543 86.3481 6.01061 86.7242 6.0404L91.9902 6.45748C92.8825 6.52814 93.2442 7.62813 92.5645 8.2034L88.5523 11.5987C88.2658 11.8412 88.1406 12.2218 88.2281 12.5843L89.4539 17.661C89.6616 18.5211 88.7145 19.201 87.9506 18.7401L83.4421 16.0196C83.1201 15.8252 82.7151 15.8252 82.393 16.0196L77.8846 18.7401C77.1207 19.201 76.1735 18.5211 76.3812 17.661L77.607 12.5843C77.6945 12.2218 77.5694 11.8412 77.2828 11.5987L73.2706 8.2034C72.5909 7.62813 72.9526 6.52814 73.8449 6.45748L79.1109 6.0404C79.4871 6.01061 79.8147 5.77543 79.9596 5.43123L81.9884 0.612343Z" fill="#AEDBF9"/>
<path d="M105.988 0.612343C106.332 -0.204115 107.503 -0.204114 107.847 0.612346L109.875 5.43123C110.02 5.77543 110.348 6.01061 110.724 6.0404L115.99 6.45748C116.882 6.52814 117.244 7.62813 116.564 8.2034L112.552 11.5987C112.266 11.8412 112.141 12.2218 112.228 12.5843L113.454 17.661C113.662 18.5211 112.714 19.201 111.951 18.7401L107.442 16.0196C107.12 15.8252 106.715 15.8252 106.393 16.0196L101.885 18.7401C101.121 19.201 100.173 18.5211 100.381 17.661L101.607 12.5843C101.695 12.2218 101.569 11.8412 101.283 11.5987L97.2706 8.2034C96.5908 7.62813 96.9526 6.52814 97.8448 6.45748L103.111 6.0404C103.487 6.01061 103.815 5.77543 103.96 5.43123L105.988 0.612343Z" fill="#D4E9F7"/>
</g>
<defs>
<clipPath id="clip0_1_76">
<rect width="114.164" height="18.8889" fill="white" transform="translate(0.917725)"/>
</clipPath>
</defs>
</svg>
